PathFileType	4	(X/Y/Z)	D:\Research_projects\MuscleProsody\BulkSports2Dtrack\RetrackedSports2D\p1_sample60_cam3\p1_sample60_cam3_Sports2D\p1_sample60_cam3_Sports2D_px_person00.trc
DataRate	CameraRate	NumFrames	NumMarkers	Units	OrigDataRate	OrigDataStartFrame	OrigNumFrames
60	60	8	22	m	60	682	780
Frame#	Time	Hip			RHip			RKnee			RAnkle			RBigToe			RSmallToe			RHeel			LHip			LKnee			LAnkle			LBigToe			LSmallToe			LHeel			Neck			Head			Nose			RShoulder			RElbow			RWrist			LShoulder			LElbow			LWrist		
		X1	Y1	Z1	X2	Y2	Z2	X3	Y3	Z3	X4	Y4	Z4	X5	Y5	Z5	X6	Y6	Z6	X7	Y7	Z7	X8	Y8	Z8	X9	Y9	Z9	X10	Y10	Z10	X11	Y11	Z11	X12	Y12	Z12	X13	Y13	Z13	X14	Y14	Z14	X15	Y15	Z15	X16	Y16	Z16	X17	Y17	Z17	X18	Y18	Z18	X19	Y19	Z19	X20	Y20	Z20	X21	Y21	Z21	X22	Y22	Z22
682	11.366666666666667	228.10960167344174	552.2881665316023	0.0	205.27907219899083	558.5989623610637	0.0	207.7786587608514	674.0783573734698	0.0	220.1602812915861	773.3535644300223	0.0	183.00426175167024	808.1843225889945	0.0	179.5145505746698	798.8147870415637	0.0	231.6156089412771	788.7622943440199	0.0	253.6669634129384	561.5493386994265	0.0	249.6038420222456	681.113558605823	0.0	257.0571924030949	791.310991456957	0.0	220.14065145774043	827.8383797453287	0.0	240.66929110252303	832.2332346714496	0.0	267.20296851250373	806.9793713255968	0.0	230.4217004391972	359.4413512091919	0.0	200.57936473378322	277.5000237716096	0.0	178.78889699353132	327.8020837668125	0.0	196.67257034379068	393.6253267098957	0.0	161.45334115145158	458.1421119805999	0.0	99.88439715917673	471.35169894272445	0.0	281.25834094646723	386.89638698219926	0.0	304.77243261898764	478.7230522397153	0.0	246.2892185750792	539.2715352068374	0.0
683	11.383333333333333	227.63560134571165	552.2837178219517	0.0	204.8788341514492	558.4725392939155	0.0	207.6301772350719	674.2895951138998	0.0	220.0344056799315	773.5797653572247	0.0	182.97230510984815	808.2481486600481	0.0	179.60961562207547	798.9482796662332	0.0	231.62631472272517	789.1270568243068	0.0	253.28184720798666	561.4840912382197	0.0	249.34353737904195	681.2502454267443	0.0	256.95338122452347	791.5194860633663	0.0	220.14410014319895	828.0867909225086	0.0	240.67863970392634	832.397578302201	0.0	267.38921393097786	807.1233078890135	0.0	230.40653059676234	359.40726105434027	0.0	200.6638557791672	277.37288710457506	0.0	178.84288153774665	327.841656574577	0.0	196.73486945314377	393.5107745342486	0.0	163.0766336347622	458.9608558016069	0.0	105.76793552924829	473.7399719309348	0.0	281.32887310974934	387.1319000975104	0.0	304.1800734253351	479.02375091396954	0.0	245.37919178083408	538.9995660581926	0.0
684	11.4	227.1010686742705	552.3129784726691	0.0	204.4139215625169	558.416552580084	0.0	207.45572638675966	674.5499710135049	0.0	219.9043585955308	773.7995162170945	0.0	182.99296747274877	808.2948563405283	0.0	179.7328625204329	799.0680470519683	0.0	231.62490607070353	789.5142562184941	0.0	252.85692929316866	561.4867930677931	0.0	249.0866985039975	681.3937609543681	0.0	256.78999844288575	791.7256521716827	0.0	220.07362632210607	828.3762093121389	0.0	240.63216243214197	832.5594078321328	0.0	267.51331188239277	807.2542515344975	0.0	230.37959469022047	359.37938891315486	0.0	200.7508737139712	277.2654886947735	0.0	178.8504466381215	327.8877396414275	0.0	196.81046028853476	393.38711706199393	0.0	164.8436809784373	459.8153875530183	0.0	112.07397587832321	476.57625989957205	0.0	281.3936143324148	387.3877969847938	0.0	303.5895163471744	479.34459678517	0.0	244.54926684631428	538.8310531877436	0.0
685	11.416666666666666	226.52296417510487	552.3804605185798	0.0	203.8980834051463	558.4440260225656	0.0	207.26093340408553	674.8556090135601	0.0	219.773540411718	774.0030848409377	0.0	183.06511415410984	808.3135223656369	0.0	179.88392613967372	799.1670256883264	0.0	231.60174580788782	789.9157325837789	0.0	252.40454547008935	561.5723684869902	0.0	248.84176791606035	681.553935807788	0.0	256.5726017797751	791.9183904662723	0.0	219.9209728823284	828.6820977082914	0.0	240.51946013650894	832.7006447527875	0.0	267.5650399926854	807.3743112685718	0.0	230.3586718888626	359.3519137797374	0.0	200.8414053089843	277.1867531348204	0.0	178.81497407060638	327.9437457916279	0.0	196.90747528397927	393.249844227823	0.0	166.73392031426914	460.6801691696352	0.0	118.60095346560466	479.8173257495823	0.0	281.4470689876487	387.65754733014535	0.0	303.00617071903207	479.68497150761976	0.0	243.82192845454185	538.7945409743911	0.0
686	11.433333333333334	225.9226050561193	552.4912718048438	0.0	203.35263779329222	558.5629748922888	0.0	207.05185699720732	675.1982334174479	0.0	219.64775515999506	774.184108130497	0.0	183.17859788832155	808.3001785061768	0.0	180.05937828330607	799.2462276709555	0.0	231.54466988451148	790.3289762440088	0.0	251.9363548779543	561.7510708942614	0.0	248.61770368672222	681.7375382348728	0.0	256.3152276008676	792.0864448034827	0.0	219.69833407808036	828.9762118551843	0.0	240.34834726731847	832.804971845159	0.0	267.54255443794847	807.4852797633945	0.0	230.36069665393484	359.3196553243577	0.0	200.93431657347236	277.14150439647915	0.0	178.7437312898486	328.01266396788014	0.0	197.02182429718326	393.103267205815	0.0	168.7027810630199	461.5423199279238	0.0	125.1227399349069	483.41810791563375	0.0	281.48797856549777	387.9346725910851	0.0	302.43481601989987	480.0444266597783	0.0	243.2211894616354	538.9186465443661	0.0
687	11.45	225.32127857035357	552.6534021265807	0.0	202.8029594949067	558.7793044703191	0.0	206.83718721575525	675.5679325021297	0.0	219.53252753022528	774.3378098149576	0.0	183.31898302010626	808.2527388063019	0.0	180.25596707619056	799.3097745598416	0.0	231.44584371910395	790.754787116366	0.0	251.4622081448845	562.0282513573295	0.0	248.42330719032682	681.9465957511717	0.0	256.0360423908154	792.2188444984844	0.0	219.4329891115793	829.2322790103623	0.0	240.13939886090878	832.8618350440994	0.0	267.4519650080318	807.5855557421568	0.0	230.39563612520297	359.282853098515	0.0	201.02865307855575	277.1328608895716	0.0	178.64730913618735	328.09593812909526	0.0	197.13922948145677	392.9595495029494	0.0	170.68397030953247	462.40881139565806	0.0	131.41306531433153	487.33654707903787	0.0	281.51570946847335	388.21250637183414	0.0	301.87736423804756	480.4209004623216	0.0	242.76933692538753	539.2323464025503	0.0
688	11.466666666666667	224.73791290677403	552.875686219696	0.0	202.2734526697241	559.093527498035	0.0	206.6279826383954	675.9545068700922	0.0	219.42842333143145	774.4647103382927	0.0	183.47068223872364	808.1686853900275	0.0	180.47200301433668	799.361361645244	0.0	231.3059294094717	791.1944330241647	0.0	250.99079281371036	562.3993627746119	0.0	248.26659012162537	682.175238367866	0.0	255.75354152150405	792.308823524879	0.0	219.15860402272054	829.4309862581838	0.0	239.91736750907742	832.8683275139508	0.0	267.3058398629112	807.6721416163679	0.0	230.46247723761843	359.24757916344544	0.0	201.12054685516534	277.15955010581956	0.0	178.5386415025335	328.1926299652256	0.0	197.23967023059495	392.833395142768	0.0	172.60492501089152	463.3001711374776	0.0	137.276074832994	491.5331177685878	0.0	281.5277510381031	388.4830031713043	0.0	301.33171105981165	480.8112708526279	0.0	242.48739314889474	539.763585997565	0.0
689	11.483333333333333	224.1864156976609	553.1627683831393	0.0	201.78329531417214	559.4965046794184	0.0	206.43396522820885	676.3476371693215	0.0	219.3312025277827	774.5698548431898	0.0	183.62002774112688	808.0526483744284	0.0	180.70366969372353	799.4077297570407	0.0	231.1329141124001	791.6416379405563	0.0	250.5275954436745	562.8478724168851	0.0	248.15266001157158	682.4118017446381	0.0	255.48359000254675	792.3590423920206	0.0	218.90725484085968	829.5618280703947	0.0	239.70464490682042	832.8294594145157	0.0	267.12058742914985	807.745960584636	0.0	230.54977013084746	359.21983738255096	0.0	201.200724355194	277.2094023540321	0.0	178.4286573629208	328.2968920443801	0.0	197.30234519065155	392.7376887994759	0.0	174.40399343349043	464.24093635412464	0.0	142.57111131618237	495.9702987992748	0.0	281.517605052093	388.73678612338193	0.0	300.7898168588972	481.2146146669379	0.0	242.3954775453702	540.5386415151866	0.0
